<?xml version="1.0" encoding="UTF-8"?>
<svg xmlns="http://www.w3.org/2000/svg" xmlns:xlink="http://www.w3.org/1999/xlink" width="16px" height="30px" viewBox="0 0 16 29" version="1.1">
<g id="surface1">
<path style=" stroke:none;fill-rule:nonzero;fill:rgb(90.588236%,43.529412%,0%);fill-opacity:1;" d="M 15.324219 22.867188 L 15.214844 22.867188 L 15.214844 22.804688 L 15.515625 22.804688 L 15.515625 22.867188 L 15.402344 22.867188 L 15.402344 23.171875 L 15.324219 23.171875 Z M 15.929688 22.882812 L 15.925781 22.882812 L 15.816406 23.171875 L 15.765625 23.171875 L 15.652344 22.882812 L 15.652344 23.171875 L 15.578125 23.171875 L 15.578125 22.804688 L 15.6875 22.804688 L 15.789062 23.066406 L 15.890625 22.804688 L 16 22.804688 L 16 23.171875 L 15.929688 23.171875 Z M 15.929688 22.882812 "/>
<path style=" stroke:none;fill-rule:nonzero;fill:rgb(32.549021%,50.980395%,63.137257%);fill-opacity:1;" d="M 5.289062 15.382812 C 5.289062 15.382812 4.511719 15.824219 5.84375 15.972656 C 7.460938 16.15625 8.289062 16.128906 10.070312 15.800781 C 10.070312 15.800781 10.539062 16.085938 11.195312 16.335938 C 7.199219 18.003906 2.152344 16.238281 5.289062 15.382812 M 4.800781 13.207031 C 4.800781 13.207031 3.925781 13.835938 5.261719 13.972656 C 6.992188 14.144531 8.355469 14.160156 10.714844 13.714844 C 10.714844 13.714844 11.042969 14.039062 11.554688 14.214844 C 6.726562 15.589844 1.34375 14.324219 4.800781 13.207031 "/>
<path style=" stroke:none;fill-rule:nonzero;fill:rgb(90.588236%,43.529412%,0%);fill-opacity:1;" d="M 8.917969 9.511719 C 9.902344 10.617188 8.660156 11.609375 8.660156 11.609375 C 8.660156 11.609375 11.160156 10.351562 10.011719 8.777344 C 8.9375 7.308594 8.117188 6.578125 12.566406 4.0625 C 12.566406 4.0625 5.582031 5.765625 8.917969 9.511719 "/>
<path style=" stroke:none;fill-rule:nonzero;fill:rgb(32.549021%,50.980395%,63.137257%);fill-opacity:1;" d="M 14.203125 16.992188 C 14.203125 16.992188 14.78125 17.457031 13.566406 17.816406 C 11.261719 18.496094 3.96875 18.703125 1.941406 17.84375 C 1.214844 17.535156 2.578125 17.105469 3.007812 17.015625 C 3.457031 16.921875 3.710938 16.9375 3.710938 16.9375 C 2.902344 16.382812 -1.523438 18.03125 1.464844 18.503906 C 9.613281 19.789062 16.316406 17.921875 14.203125 16.992188 M 5.664062 10.949219 C 5.664062 10.949219 1.957031 11.808594 4.351562 12.121094 C 5.363281 12.25 7.378906 12.222656 9.257812 12.070312 C 10.792969 11.941406 12.335938 11.675781 12.335938 11.675781 C 12.335938 11.675781 11.792969 11.898438 11.402344 12.160156 C 7.636719 13.125 0.359375 12.675781 2.453125 11.6875 C 4.222656 10.855469 5.664062 10.949219 5.664062 10.949219 M 12.320312 14.574219 C 16.148438 12.636719 14.378906 10.773438 13.144531 11.023438 C 12.839844 11.085938 12.703125 11.136719 12.703125 11.136719 C 12.703125 11.136719 12.816406 10.964844 13.03125 10.890625 C 15.476562 10.054688 17.355469 13.363281 12.242188 14.671875 C 12.242188 14.671875 12.300781 14.621094 12.320312 14.574219 "/>
<path style=" stroke:none;fill-rule:nonzero;fill:rgb(90.588236%,43.529412%,0%);fill-opacity:1;" d="M 10.011719 0 C 10.011719 0 12.132812 2.070312 8 5.246094 C 4.6875 7.796875 7.242188 9.25 8 10.914062 C 6.0625 9.210938 4.644531 7.714844 5.597656 6.324219 C 6.996094 4.277344 10.867188 3.285156 10.011719 0 "/>
<path style=" stroke:none;fill-rule:nonzero;fill:rgb(32.549021%,50.980395%,63.137257%);fill-opacity:1;" d="M 6.042969 19.828125 C 9.71875 20.058594 15.363281 19.699219 15.496094 18.007812 C 15.496094 18.007812 15.238281 18.648438 12.457031 19.160156 C 9.320312 19.734375 5.449219 19.667969 3.15625 19.296875 C 3.15625 19.296875 3.625 19.675781 6.042969 19.828125 "/>
<path style=" stroke:none;fill-rule:nonzero;fill:rgb(90.588236%,43.529412%,0%);fill-opacity:1;" d="M 5.4375 26.304688 C 5.09375 26.597656 4.726562 26.761719 4.398438 26.761719 C 3.929688 26.761719 3.675781 26.488281 3.675781 26.046875 C 3.675781 25.574219 3.945312 25.226562 5.035156 25.226562 L 5.4375 25.226562 L 5.4375 26.304688 M 6.394531 27.355469 L 6.394531 24.101562 C 6.394531 23.269531 5.910156 22.71875 4.734375 22.71875 C 4.050781 22.71875 3.449219 22.882812 2.960938 23.09375 L 3.101562 23.671875 C 3.488281 23.535156 3.984375 23.40625 4.472656 23.40625 C 5.148438 23.40625 5.4375 23.671875 5.4375 24.21875 L 5.4375 24.628906 L 5.101562 24.628906 C 3.457031 24.628906 2.71875 25.253906 2.71875 26.183594 C 2.71875 26.988281 3.207031 27.449219 4.125 27.449219 C 4.714844 27.449219 5.15625 27.210938 5.570312 26.863281 L 5.644531 27.355469 Z M 9.589844 27.355469 L 8.394531 27.355469 L 6.960938 22.800781 L 8 22.800781 L 8.894531 25.601562 L 9.089844 26.441406 C 9.542969 25.222656 9.859375 23.988281 10.019531 22.800781 L 11.035156 22.800781 C 10.761719 24.300781 10.273438 25.949219 9.589844 27.355469 M 14.167969 26.304688 C 13.820312 26.597656 13.453125 26.761719 13.125 26.761719 C 12.65625 26.761719 12.402344 26.488281 12.402344 26.046875 C 12.402344 25.574219 12.671875 25.226562 13.761719 25.226562 L 14.167969 25.226562 L 14.167969 26.304688 M 15.125 27.355469 L 15.125 24.101562 C 15.125 23.269531 14.636719 22.71875 13.464844 22.71875 C 12.777344 22.71875 12.175781 22.882812 11.6875 23.09375 L 11.828125 23.671875 C 12.214844 23.535156 12.710938 23.40625 13.199219 23.40625 C 13.875 23.40625 14.167969 23.671875 14.167969 24.21875 L 14.167969 24.628906 L 13.828125 24.628906 C 12.183594 24.628906 11.445312 25.253906 11.445312 26.183594 C 11.445312 26.988281 11.933594 27.449219 12.851562 27.449219 C 13.445312 27.449219 13.882812 27.210938 14.296875 26.863281 L 14.371094 27.355469 Z M 1.667969 28.128906 C 1.394531 28.515625 0.953125 28.824219 0.472656 29 L 0 28.457031 C 0.367188 28.273438 0.683594 27.976562 0.828125 27.699219 C 0.953125 27.453125 1.007812 27.136719 1.007812 26.382812 L 1.007812 21.183594 L 2.023438 21.183594 L 2.023438 26.308594 C 2.023438 27.320312 1.941406 27.730469 1.667969 28.128906 "/>
</g>
</svg>
